<svg version="1" xmlns="http://www.w3.org/2000/svg" width="682.667" height="682.667" viewBox="0 0 512.000000 512.000000"><path d="M32 1.4C16.2 4.9 4 17.5 1.1 33.5.3 37.5 0 74.6 0 150.6v111.3l4.8-3.1c2.6-1.7 6.1-4.6 7.8-6.4 1.7-1.8 4.4-3.6 6-4 1.6-.3 4.3-1.9 5.9-3.4 4-3.7 6.8-5 10.4-5 1.6 0 6.7-1.4 11.3-3.1 4.9-1.9 11.4-3.5 15.8-3.9 4.1-.4 7-.7 6.3-.8-.6-.1-2.1-2.2-3.2-4.6-2.1-4.3-2.1-5.1-1.9-61.9.3-56.7.3-57.6 2.4-60.4 1.2-1.5 3.6-3.7 5.5-4.8 3.2-1.9 5.1-2 27.4-1.9 26.8.1 32.4.9 44.2 6.6 13.3 6.4 23.8 20.3 28.5 37.5 3.1 11.3 3 35.4-.1 46.8-5.5 20.4-16.7 34.5-32.8 41.1l-5.8 2.4h4.1c5.6 0 13.3 2.5 18 5.7 2.1 1.4 6 3 8.6 3.4 2.6.4 6.3 1.9 8.2 3.4 1.8 1.4 6.2 3.9 9.6 5.6 3.4 1.6 7.3 4.1 8.7 5.5 1.3 1.3 3.9 3.5 5.7 4.7 13.5 9.2 19 12.7 19.9 12.7.6 0 2.3 1.2 3.8 2.6 1.5 1.4 6 3.7 10.1 5.1 6 2 8.4 2.3 13.8 1.8 3.6-.3 10.2-.8 14.8-1.1 7.3-.5 8.4-.8 9.8-3 1.2-1.8 2.5-2.4 5.3-2.4 2 0 4.2.5 4.8 1.1.7.7 2.8.9 5.5.5 2.3-.4 7-1 10.3-1.5 3.3-.4 7.3-1.3 8.8-1.9 4.2-1.8 28.3-1.9 33.2-.2 4.8 1.7 17.2 1.8 20.2.2 1.2-.7 6.4-1.2 11.5-1.3 5.1 0 14.3-.5 20.3-1 6.1-.5 16.9-1.1 24-1.3 16.9-.5 38.7-2.2 45-3.7 5.2-1.2 12.7-1.7 39.8-2.6l15.7-.5V152.1c0-77.1-.3-114.6-1.1-118.6-3-16.4-16-29.4-32.4-32.4-8.9-1.7-439-1.4-446.5.3zm301.1 100.4c2.8 3.1 35.9 84.8 42.7 105.4l3.6 10.8 3.7-11.3c4.4-13.3 38.6-100.2 40.7-103.5 2.2-3.3 6.6-5.3 12.2-5.4 5.4 0 9.1 1.9 10.8 5.8 1.5 3.3 1.7 126.6.2 129.4-.5 1-2.5 2.3-4.4 3-4.7 1.5-10.2-.7-11.2-4.5-.7-2.8.2-88.7 1.1-104l.5-9-6.8 19.5c-10.4 29.5-35.9 92.1-38.9 95.1-1.3 1.5-3.7 2.9-5.3 3.2-4 .8-9.6-1-11.8-3.8-2.6-3.3-29.9-71.9-38.4-96.5-4.5-13-6.5-18-6.2-15 2.2 21.6 3.2 105.4 1.3 110.8-1.8 5.1-9.5 6.4-14.1 2.4-1.7-1.4-1.8-5.8-1.8-65.8v-64.3l2.3-2.6c4.4-5.2 15.1-5 19.8.3zm-46.2-1.4c2.7 2.5 2.8 8.5.2 11.7l-1.9 2.4-33.8.3c-22.2.2-34.3.7-35.1 1.4-1 .8-1.3 5.8-1.3 20.4V156h30.1c35.1 0 35.9.2 35.9 8.1 0 2.4-.7 4.2-2.1 5.5-2 1.8-4.3 1.9-33 2.2l-30.9.3.2 22.7.3 22.6 2.5 1.3c1.9.9 11 1.3 35.8 1.3 31.9 0 33.3.1 35.2 2 2.6 2.6 2.7 8.3.1 10.9-1.1 1.1-3.5 2.3-5.3 2.6-1.9.4-19.3.5-38.8.3-40.6-.3-41.2-.5-45-8.2-1.9-4.1-2-5.9-2-60.7 0-62.2-.1-60.6 6.3-65.3 4.1-3 9.2-3.4 46.3-3.2 32.1.1 34.3.2 36.3 2z"/><path d="M83 115.3l-2.5 1.3-.3 50c-.2 45.7-.1 50.3 1.4 51.5 2.2 1.8 23.3 2.4 35.1 1 19.8-2.4 31.9-13.8 36.9-34.8 2.2-9.2 2.2-28.6 0-37.2-5.1-19-16.2-29.5-34.2-32.1-10.1-1.4-33.3-1.3-36.4.3zM118.5 235.2c-4.4.5-19.9.7-34.5.4l-26.5-.6-7 2.6c-7.8 2.9-12.1 4.1-17.8 4.9-2.4.4-4.7 1.6-6.4 3.5-1.4 1.6-3.9 3.2-5.6 3.6-1.7.3-4.9 2.4-7.2 4.6-2.2 2.1-6 5.4-8.5 7.2l-4.5 3.2-.3 22.2C.1 301.4.3 309 1 309c.5 0 1-1.5 1-3.3 0-3.7 4.5-13.2 9.3-19.5 1.7-2.4 6.8-8.4 11.2-13.4 4.4-5 9.6-11 11.5-13.3 4.2-5.2 16.2-10.9 26.1-12.4 3.6-.6 18.3-.9 33.4-.7 25.7.4 27.4.5 36 3 5 1.5 11.5 3.4 14.5 4.2 9.7 2.7 19 8.4 29 17.7 5.2 4.8 13 11.9 17.2 15.8 7.4 6.8 20.9 15.8 23.6 15.9 2.2 0 11.4 3 16.1 5.2 6.3 3 16.3 2 25.7-2.4l6.9-3.3H281c16.6 0 19.6-.3 29.5-2.7 6.9-1.7 15.3-2.9 22.5-3.3 7.3-.3 11.7-1 12.2-1.8.4-.6.8-4.4.8-8.3v-7.1l-7.7-1.2c-4.3-.7-9-1.7-10.4-2.1-3.3-1-23.9.2-25.9 1.5-.8.6-4.4 1.3-8 1.7-3.6.4-8.5 1-10.8 1.4-2.7.4-4.8.2-5.5-.5-2.1-2.1-7.3-1.3-9 1.3-1.5 2.2-2.5 2.5-10.9 3-5.1.3-11.8.8-14.9 1.2-6.6.7-19-2.5-22.6-5.9-1.3-1.1-5.2-3.6-8.8-5.6-7.3-4-15.4-9.6-22.3-15.5-2.5-2.1-6.6-4.7-9.1-5.8-2.5-1-6.7-3.5-9.3-5.4-3.2-2.2-6.5-3.7-9.6-4.1-2.7-.4-6.3-1.8-8.4-3.4-5.9-4.2-20.8-6.3-34.3-4.7z"/><path d="M61 248.7c-3.8.4-15.9 4.8-20.1 7.3-1.5.8-4.7 3.9-7 6.7-2.4 2.8-7.5 8.7-11.4 13.2-13.9 16-17.3 21.4-18.2 29-.4 3.7-1.1 5.2-2.4 5.6-1.8.6-1.9 2-1.9 19.1C0 340.9.4 348 1 348c.5 0 1.6-1.3 2.5-3 1-1.9 2.7-3.2 4.9-3.9 9.3-2.5 16.1-10.5 19.2-22.5.9-3.4 2-6.6 2.6-7.3.5-.7 2-5.1 3.3-9.8 4.2-15.1 12.6-26.8 25.8-35.8l8.5-5.8 21.9.2 21.8.2 9.5 3.3c20.9 7.2 32.6 12.9 37.2 18.2 1.8 2.1 6.7 6.3 10.8 9.4 4.1 3.1 8.6 6.8 9.9 8.2 1.5 1.6 3.5 2.6 5.2 2.6 8 0 18.9 7.1 22.9 15 1.7 3.3 2.2 3.6 8.9 4.8 3.9.7 10.5 1.2 14.6 1.2 6.5 0 7.6-.3 8.5-2.1.7-1.1 2.7-3.8 4.6-5.9l3.4-3.7h-7.8c-5.7-.1-8.9-.6-12.3-2.1-2.5-1.2-7.1-2.8-10.3-3.6-7.9-2.1-15.9-6.9-23.6-14.1-3.6-3.4-8.5-7.6-11-9.5-2.5-1.9-7.9-6.6-12-10.5-8.1-7.7-16.4-12.9-23.8-15-2.6-.8-9.4-2.8-15.2-4.6l-10.5-3.2-28-.2c-15.4-.1-29.6 0-31.5.2z"/><path d="M62.4 266c-3.2 2.2-7.8 5.5-10.1 7.5-5.1 4.3-14.7 19.5-15.7 25-.4 2.2-2.1 7.1-3.7 10.9-1.6 3.7-2.9 7.4-2.9 8.2 0 .8-1.4 4.8-3.2 9-2.7 6.5-3.9 8-8.5 11.4-3 2.1-6.8 4.2-8.5 4.5-1.9.5-3.6 1.8-4.7 3.6-.9 1.6-2.4 3.2-3.3 3.5-1.5.4-1.8 1.8-1.8 7.9 0 5.5.3 7.3 1.3 7 .6-.3 5.5-1.2 10.7-2 5.2-.8 13.9-2.3 19.3-3.5 5.5-1.1 11.3-2 13.1-2 2.1 0 4.2-1 6.3-2.8 3.1-2.9 3.1-2.9 3.1-13.3.1-5.7.8-13.7 1.6-17.7.9-4 1.6-10.5 1.6-14.4 0-10 1.6-14.2 7.8-20.9 6.9-7.5 10.2-9.4 18.3-10.8 12-2 22.1-1.4 31.2 1.8 8.9 3.2 21.8 8.5 31.2 13 21.7 10.4 22.9 10.8 27.8 10.3 2.6-.2 4.7-.7 4.7-1.1 0-.3-3.1-2.9-6.8-5.6-3.7-2.8-9-7.4-11.9-10.3-5.8-5.8-18-12.2-35.8-18.7l-10-3.7-22.6-.4-22.6-.5-5.9 4.1zM494.8 267.5c-.3.3-7.7.7-16.4 1-15.1.4-18.5.7-31.4 3.4-3 .6-14.9 1.4-26.5 1.7-11.5.3-25.7 1-31.5 1.5-5.8.5-14.8 1.2-20.1 1.5l-9.7.6 1.4 2.6c.8 1.5 1.4 5.3 1.4 8.4 0 5.5.1 5.7 2.3 4.9 1.2-.5 5.4-1.2 9.2-1.5 3.9-.4 13.8-1.6 22-2.7 18.4-2.3 40.7-2.5 70.7-.4L488 290l4.2-2.3c3.4-1.7 6-2.2 12.1-2.2h7.7v-17.2l-3.7-.7c-4.7-.7-12.8-.8-13.5-.1z"/><path d="M89 278.6c-.8.1-4.1.6-7.3.9-5.4.6-6.3 1.1-12.4 6.8-3.9 3.6-7.5 8.1-8.7 10.7-2.1 4.6-3.1 14.9-4.1 41.4-.5 12.8-1.3 15.1-6.1 18.3-1.4.9-4.9 2-7.8 2.4-7 1-38.7 6.8-40.8 7.5-1.3.4-1.8 1.6-1.8 4.5 0 3.6.2 3.9 2.3 3.5 1.2-.3 4.9-.7 8.2-1 3.3-.3 10.6-1.3 16.3-2.3l10.2-1.6 5 2.7c6 3.3 9.5 2.7 16.1-2.6 8.6-6.9 13-16.4 14.9-31.8.6-5.2 2.7-14.2 4.6-19.9 1.9-5.7 3.4-11 3.4-11.7 0-2.5 6.4-8.6 12.1-11.5 5.9-3 10.6-3.6 13.8-2 1.7 1 21.7 5.4 32.4 7.2 3.2.5 8.7 2.3 12.2 4 6.2 2.9 6.4 2.9 9.9 1.3 3.2-1.6 3.4-1.9 1.8-3-.9-.6-4.6-2.4-8.2-3.8-3.6-1.5-8.1-3.5-10-4.6-5.2-2.7-23.7-10.5-32-13.4-5.6-2-9.2-2.6-14.9-2.5-4.2.1-8.3.3-9.1.5zM495 289.2c-6.6 2.5-5.8 2.5-47.5.9-23.9-1-35.5-1-42-.3-17.5 2.1-41 5.2-42.2 5.7-.8.2-1.3 2.2-1.3 4.6v4.1l10.8-.5c9.1-.4 21.5-2 41-5.3 2.4-.4 6.7-.2 9.5.4 8.2 1.7 27.5 5.3 35.9 6.8 4.3.7 13.2 1.3 19.7 1.3 11.1 0 12.3-.2 15.6-2.5 4.2-2.8 5.7-2.9 11.5-.9 2.3.8 4.6 1.5 5.1 1.5s.9-3.8.9-8.4c0-7.8-.1-8.4-2.2-9-4.2-1.1-9.3-.6-14.8 1.6z"/><path d="M93 297.1c-5.5 3-9.9 7.3-10 9.7 0 .7-1.5 5.9-3.4 11.5-1.8 5.6-3.9 14-4.6 18.7-.6 4.7-1.4 10-1.6 11.7-.6 3.9-5.1 12.8-9.1 17.8-3.1 4-10.4 9-14.4 10-1.9.5-4.2-.1-7.8-2-5.8-3.1-5-3.1-38.8 2.1-3 .4-3.3.8-3.3 3.9v3.4l8.8-.5c4.8-.3 9.5-.7 10.6-.9 3.2-.7 13 1.5 15.8 3.6 1.5 1 5.8 2.6 9.4 3.5 10.9 2.5 14.8 1.1 24.6-9 4.7-4.7 9.2-10.5 10.9-13.8 3-5.9 6.9-19.5 9.5-33.2 2.6-13.5 9.7-24.4 17.3-26.6 2.2-.6 4.6-.5 7.9.5 2.6.8 6.9 1.5 9.7 1.5 4.1 0 5.3-.4 7-2.6 1.4-1.7 3.5-2.9 6.1-3.3 3.5-.6 2.7-.9-8.1-2.9-6.6-1.3-15.3-3.2-19.3-4.2-9.5-2.6-10.7-2.5-17.2 1.1zM328 299c-7.3.5-14.8 1.7-20.7 3.4-5.1 1.4-10.5 2.6-12 2.6-2.7 0-2.6.2 1.8 3 2.6 1.6 6.3 4.9 8.4 7.3l3.6 4.3 7.2-1.8c4-1 7.9-1.8 8.7-1.8 1.2 0 1.5-.9 1.2-3.9-.6-6.3 1.9-8.1 11.8-8.1h8v-3c0-3.4 1.7-3.2-18-2zM404 302c-5.8 1.1-11.7 1.9-13.2 2-3.3 0-3.2-.2-1.3 3.7 1.2 2.3 1.3 3.7.5 5.8-1 2.5-.9 2.6 1.7 2.1 1.6-.3 5.1-.8 7.8-1.2 2.8-.3 7.4-1.3 10.4-2.1 10.2-2.9 29 0 47.1 7.2 1.9.8 8.9 2.6 15.4 4.1 11.8 2.5 13.7 2.6 26.7.8 3.6-.4 5.3-.1 8 1.5 1.9 1.2 3.7 2.1 4.2 2.1.4 0 .7-4.7.7-10.4v-10.3l-4.2-1.2c-6.8-1.8-9.1-1.7-13.3.9-6.5 4-19.1 3.7-45-1.1-11.5-2.2-22.9-4.4-25.2-4.9-5.5-1.3-7.8-1.2-20.3 1zM143.7 304.5c1.4 1 2.4 3.1 2.9 6 .3 2.5 1.2 4.5 1.8 4.5.7 0 2.7-1.5 4.4-3.3l3.3-3.4-5.9-2.6c-6.6-3-9.9-3.6-6.5-1.2z"/><path d="M103.2 311.1c-4.7 3.1-9.8 12.9-11.6 22.4-2.8 14.9-6.5 27.5-9.8 33.7-3.9 7.5-15.6 20.1-21.3 23.1-6.5 3.4-14.7 2.8-24.3-1.8-9-4.5-17.5-5.5-29-3.5L0 386.2v6.6l8.8.5c10.1.5 18.5 3.5 24.7 8.9 5 4.4 12.3 6.2 23.2 6 12.4-.2 14.4-1.6 23.8-15.9 4.2-6.5 9-13.6 10.5-15.9 4-6 6.9-15.8 8-27 1.4-15.6 3.3-19.8 11.8-25.6 4.2-2.9 5.4-3.2 11.9-3.3h7.3v-9.2l-7.2-.7c-4-.4-9.3-.9-11.8-1.2-3.5-.3-5.2 0-7.8 1.7zM409.5 314.5c-9.4 2.2-38.5 6.5-43.2 6.5H362v9h4.2c2.2 0 8.9-.9 14.7-1.9 22.6-4.2 32.5-5.4 39-4.8 8.1.7 18.8 4.3 26 8.7 3.1 1.9 9.7 4.5 15.5 6.1 5.6 1.5 12.6 3.4 15.6 4.2 3 .9 10 2.1 15.5 2.7 5.5.6 12.1 1.4 14.8 1.7l4.7.6v-8.4l-.1-8.4-4.7-2.3c-5.5-2.6-7-2.7-13.4-.7-4.4 1.3-5.8 1.2-17.5-1-7.1-1.4-15.3-3.3-18.3-4.3-28-9.5-35.3-10.7-48.5-7.7zM266.9 315.9c-3.9 1.3-7.1 3.1-10.2 6l-2.9 2.6 3.4.5c1.8.3 6.9 0 11.2-.7 4.4-.6 11.4-1.5 15.7-1.9 4.7-.4 7.6-1 7.3-1.6-.4-.6-3-2.1-5.8-3.4-5.2-2.4-13.3-3.1-18.7-1.5zM146.7 316.7c-.4.3-.7 1.3-.7 2.2.1 1.3.3 1.3 1.1-.2 1.1-1.9.8-3.3-.4-2zM173.8 316.5c-.4.4 1 2.8 3.2 5.2 2.4 2.7 4.5 6.6 5.4 9.8 1.2 3.8 2.7 6.3 6.1 9.4 6.8 6.3 7.3 5.7 5.6-6.6-1-6.4-4.7-12.5-9.7-15.8-2.6-1.7-9.6-3-10.6-2z"/><path d="M165 318.6c-1.9.8-3.6 1.7-3.8 1.9-.2.2.8 1.9 2.3 3.9 2 2.6 2.9 5.4 3.6 10.8l.9 7.3 6.6 6.2c6.3 6 16.9 13.3 19.3 13.3.7 0 1.1-2.5 1.1-7 0-7 0-7-3.7-9.4-5.7-3.6-8-6.6-10.8-13.6-2.2-5.6-9.5-15.1-11.5-15-.3.1-2.1.8-4 1.6zM318.8 319.5l-8.5 2 2 4.7c2.3 5.6 3.2 5.8 12.8 2.9 3.5-1 9.7-2.8 13.7-4 5.8-1.8 7.2-2.5 7.2-4.2 0-2.5-.8-2.7-10.6-3.1-5.5-.2-10.7.3-16.6 1.7zM364.3 318.7c1.5.2 3.9.2 5.5 0 1.5-.2.2-.4-2.8-.4s-4.3.2-2.7.4zM114.5 323.9c-8.9 4.1-12.6 11.4-14 27.5-1 11.6-3 18.1-7.9 25.5-2.3 3.6-5.1 8-6.2 9.7-5 8-11.4 17.1-13.7 19.2-3.1 2.9-8.2 4.1-17.3 4.2-11.8 0-18.3-1.7-22.5-6-2.5-2.5-6-4.5-11.4-6.4-9.5-3.4-13.3-4-17.9-3.2-3.3.6-3.6 1-3.6 4.1 0 3 .4 3.5 2.3 3.5 3 0 15.6 3.4 18.7 5 1.4.7 4.1 2.9 6.2 5 2.7 2.8 5.6 4.4 11.5 6.3 4.4 1.4 9.6 3.5 11.6 4.7 3.1 1.9 4.9 2.2 11 1.8 6.2-.3 7.9-.8 12.3-3.8 2.9-1.9 8-5.3 11.4-7.5 3.4-2.2 8.8-6.3 11.9-9 3.2-2.8 7.2-5.8 9-6.7 6.5-3.5 9.1-15.3 9.1-41.2v-13.8l3.4-3.4c2.8-2.8 4.2-3.4 7.5-3.4h4.1v-6.4c0-4.9-.4-6.5-1.6-7-3.1-1.2-10-.5-13.9 1.3z"/><path d="M154.5 326.5c-2.5 3.2-2.6 3.6-1.1 5.7 1.2 1.6 1.6 4.7 1.6 11.3.1 14.1 4.2 21 17.2 28.5 7.7 4.4 21.4 10.1 22.3 9.2.3-.3.5-4 .5-8.3v-7.7l-5.2-3c-7.2-4-17-11.5-20.7-15.8-2.4-2.7-3.1-4.4-3.1-7.7-.1-7.2-4.2-15.7-7.6-15.7-.7 0-2.5 1.6-3.9 3.5zM210.5 328.2c.4 2.9 1.4 5.8 2.2 6.5 2.1 1.7 11.4 3.5 15.8 3.1 3.4-.3 3.8-.6 5.5-5.8 1.1-3 1.9-5.9 2-6.4 0-.5-2-.6-4.5-.3-2.5.2-8-.2-12.3-.9-4.2-.7-8.1-1.4-8.5-1.4-.5 0-.6 2.4-.2 5.2zM279 325c-3.6.4-11.1 1.1-16.7 1.5l-10.1.8-1.6 3.6c-3.3 8-3.4 7.8 4.1 8.5 3.8.4 9.2.2 12.3-.4 3-.6 9-1.5 13.3-2 8.6-1 18.7-3.2 18.7-4 0-.3-1-2.3-2.3-4.5-2.1-3.7-2.6-4-6.7-4.1-2.5-.1-7.4.2-11 .6zM407.5 325.6c-1.6.3-10.7 1.8-20.2 3.4-9.4 1.7-19 3-21.2 3H362v7.5c0 4.1.3 7.5.6 7.5.4 0 2.1-.9 3.9-2 2.9-1.8 8-3 25.5-6 3-.5 9.8-.8 15-.7 9.4.2 9.6.3 15.5 4.3 3.5 2.5 9.5 5.3 14.4 6.9 4.6 1.4 11 4 14.2 5.6 3.2 1.6 6.4 2.9 7 2.9 1.7 0 17 7.9 19.4 10 3.3 2.8 8 4 11.9 2.9 2.7-.8 4.2-.6 6.5.6 1.8.9 5.6 1.5 9.6 1.5h6.5v-23.8l-4.2-.5c-2.4-.3-9.6-1-16.1-1.6-7.4-.7-14.1-2-18-3.5-3.4-1.2-9.1-2.9-12.7-3.6-3.6-.7-9.9-3-14-5.2-12-6.4-19.3-8.8-28.4-9.2-4.4-.2-9.4-.2-11.1 0zM334.5 328.3c-3.8 1.3-9.8 2.9-13.3 3.7-4.9 1-6.2 1.6-5.8 2.9.2.9.7 3.3 1.1 5.4.6 3.5.8 3.8 3.3 3.2 1.5-.3 5.4-1 8.6-1.5 3.3-.5 8.4-2 11.3-3.2 5.6-2.3 6.7-4 6.1-9.4-.4-3.8-2.4-4-11.3-1.1z"/><path d="M148.7 335.9c-1.4 3.4-1.7 7.9-1.7 25.2 0 23.2.2 24.2 6.7 28.5 2.7 1.7 17.1 6 30.1 9 3.5.8 8.3 2.5 10.6 3.9 3.2 1.9 5.7 2.5 9.9 2.5 3 0 10.8 1.3 17.2 3 6.4 1.6 13.3 3 15.4 3 2.1 0 6 .7 8.7 1.5 5.8 1.7 13.1 1.9 17.1.4 2-.7 7-.7 17.4.1 13.7 1.1 15 1.1 22-.9 4.2-1.2 8.8-2.1 10.5-2.1 1.6 0 6.2-.7 10.2-1.5 3.9-.8 10.5-2.2 14.5-3 3.9-.8 8-1.5 8.9-1.5.9 0 4-.5 6.8-1.1l5.2-1.1-3.5-2.4c-4.5-3-8.7-11.3-8.7-17.1 0-5.5-1-5.5-11.4-.1-6.8 3.5-9.3 4.2-15.6 4.6-7.3.5-7.6.6-11.1 4.6-11.6 13.2-36.3 16.6-54.1 7.5-2.3-1.2-6.5-4.5-9.3-7.3l-5-5.2-11-1.2c-6.1-.7-12.5-1.2-14.2-1.2H211v7c0 8.7-1.7 11-8.3 11-6.2 0-7.5-1.9-7.9-10.9l-.3-7.4-5-1.7c-4.8-1.7-11.9-4.9-19.8-9.1-5.2-2.7-11.2-8.9-14.2-14.8-2.1-4.3-2.5-6.4-2.5-13.9 0-5.8-.5-9.4-1.3-10.6-1.3-1.7-1.5-1.5-3 2.3z"/><path d="M211 343.6c0 7.1.1 7.5 2.6 8.4 1.4.6 5.9 1 10 1h7.4v-4.9c0-2.7.3-5.6.6-6.5.5-1.3-.2-1.6-4.3-1.6-2.8 0-7.5-.9-10.6-1.9l-5.7-2v7.5zM288 337.5c-16.2 3.3-27 4.5-33.9 3.9-5-.5-7.1-.4-7.1.5 0 .8 7.3 1.1 26.4 1.1 28.2 0 28.2 0 26.9-4.9-.6-2.5-2.6-2.5-12.3-.6zM121.9 338.5c-1.4.8-3.1 2.7-3.8 4.2-.6 1.5-1.5 12-2.1 23.3-1.3 26.5-2.3 29.7-10.8 34.6-2.6 1.5-5.5 3.7-6.4 4.9-.9 1.2-4.5 3.9-8 6s-8.2 5.3-10.5 7.2c-2.3 1.9-6.8 4.5-9.9 6-4.9 2.2-6.6 2.5-11.9 2-4-.4-8.4-1.7-12.1-3.5-3.3-1.7-7.5-3.3-9.4-3.7-5-1-8-2.8-12-6.9-2.6-2.7-5.4-4.3-11.3-6.1-4.3-1.4-9.1-2.5-10.8-2.5-2.7 0-2.9.3-2.9 3.9v3.8l6.6 2.2c8.4 2.8 11.8 5.4 13.8 10.6 2.2 5.6 4.7 7.7 13.9 12 9.5 4.4 19.2 5.9 26.3 4 6.4-1.7 16.5-6.3 23.4-10.7 3-1.9 7.3-4.1 9.5-4.8 2.2-.7 6.9-2.7 10.5-4.5 3.6-1.7 9.2-3.9 12.5-4.8 3.3-.8 8.8-2.5 12.3-3.8 7-2.5 6.7-2.5 26.7 2.5 20.2 5.1 22.4 5.6 24.9 5.6 3 0 20.9 9.1 24.6 12.4 1.4 1.3 6.6 4.3 11.5 6.6 7.2 3.5 10.7 6 17.5 12.5 4.7 4.6 10.4 9.2 12.7 10.4l4.1 2.1 4.9-3.4c2.6-1.8 6.6-3.9 8.8-4.6 2.2-.7 5.1-2.3 6.5-3.5 3-2.7 12.5-7.5 14.8-7.5 1.6 0 10.5-2.8 24.5-7.6 3.8-1.3 8.2-2.4 9.8-2.4 1.6 0 5.1-1.1 7.7-2.5 2.6-1.4 5.7-2.5 7-2.5 1.2 0 8.8-1.1 16.8-2.5 8.9-1.5 18.8-2.5 25.7-2.6 9.9-.1 12.1.2 17.7 2.4 3.6 1.4 8.1 3 10 3.6 3.3 1.1 11.8 5.5 22.3 11.5 2.6 1.5 6.8 3.6 9.5 4.6 6.2 2.4 17.2 6.9 19.7 8 1.9.9 5.5 2.2 16 6 2.8.9 6.8 2.7 9 3.9 2.2 1.1 4.7 2.1 5.6 2.1.9 0 3.3 1.1 5.3 2.5 9 6.1 17.9 8.9 19 5.9.3-.8.6-6.4.6-12.4v-10.7l-4.7-1.3c-2.7-.7-6.9-2.4-9.5-3.7-2.6-1.2-5.3-2.3-5.9-2.3-2.5 0-17.6-8.1-21.3-11.5-2.2-1.9-4.5-3.5-5.1-3.5-.6 0-4.3-2-8.2-4.5-9.6-5.9-20.8-11.5-26.3-13.1-4.4-1.2-8-2.4-21-6.9-3.6-1.3-9.7-3.1-13.5-4.2-7-1.9-7.1-1.9-11.5.1-3.6 1.6-6.9 2.1-16.5 2.2-6.6.1-15.6.9-20 1.7-4.4.9-10.6 2.1-13.7 2.6-3.2.6-8.4 1.6-11.5 2.2-3.2.6-8.3 1.5-11.3 1.9-3 .4-8.5 1.5-12.1 2.3-5.5 1.4-8.7 1.4-19.5.6-9.5-.8-14.9-.7-20.5.1-6.4 1-8.3.9-12.9-.4-2.9-.9-7-1.6-9.1-1.6-2 0-9-1.3-15.5-3-6.6-1.6-14.5-3-17.6-3-4.4 0-7.1-.7-11.5-2.9-3.2-1.7-10.3-4.1-15.8-5.5-17.6-4.3-23.1-6.2-26.7-9l-3.5-2.6-.5 5.5c-.6 7.1-2.7 9.5-8.2 9.5-8.5 0-8.6-.5-8.6-34.8 0-25.5-.2-29.1-1.6-29.6-2.3-.9-3.6-.7-6.5.9z"/><path d="M341 340.5c-1.4.7-7.3 2.4-13.2 3.6-9.2 1.9-10.8 2.5-10.8 4.1 0 1.1-1.3 3.3-2.9 4.9l-2.9 2.9H247v3.4c0 1.9.4 4.6 1 6 .8 2.3 1.5 2.6 5.7 2.6 2.7 0 8.9-.6 13.8-1.4 5-.8 14.4-2 21-2.6 6.6-.7 13.8-1.9 16-2.7 4.7-1.7 8.2-2.6 19-4.8 17.5-3.5 21.5-4.8 22.1-7.1.8-3.1.1-9.7-1.1-10-.5-.2-2.1.3-3.5 1.1zM395.5 341.1c-12 .8-22.9 3.1-29 6.1l-4.5 2.2V368l2.8-.6c1.5-.4 3.7-1.1 5-1.5 6.7-2.5 22 1.3 53.7 13.5 3.9 1.5 10 3.6 13.7 4.6 9.2 2.6 19.8 6.4 24.4 8.9 2.1 1.2 4.4 2.1 5.2 2.1.7 0 5.7 2.2 11.2 5 5.5 2.7 11.3 5 12.9 5 1.6 0 6.7 2 11.4 4.5s8.8 4.5 9.1 4.5c.3 0 .6-8.8.6-19.5V375h-6.6c-3.6 0-7.4-.5-8.5-1.1-1.1-.5-5.5-1.1-9.9-1.2-6.6-.2-8.2-.6-10.2-2.4-4.2-3.9-28.7-15.2-41.9-19.2-3.6-1.2-9.2-3.8-12.5-6-6.9-4.5-11.2-5.2-26.9-4zM211 359.8v7.1l3.3.5c1.7.3 6.5.7 10.6 1l7.3.5-.6-3.1c-.3-1.7-.6-4.7-.6-6.8v-3.8l-8.2-.4c-4.6-.3-9.1-.8-10-1.2-1.6-.7-1.8-.1-1.8 6.2z"/><path d="M339 355.2c-3.1.9-12.6 2.8-21.5 4.5-1.6.2-6.4 1.5-10.5 2.8-4.2 1.3-12.3 2.8-18 3.4-5.8.7-14.6 1.6-19.7 2.1-5 .6-11.7 1-14.7 1-3.2 0-5.6.4-5.6 1 0 1.8 3.7 8.5 6.6 11.9 4.1 4.9 5.8 5.5 11 3.5 3.9-1.5 5.6-1.5 14.6-.5 11.7 1.3 11.5 1.4 17.7-7.9 3.2-4.9 4.1-5.5 7.4-5.8 7.2-.6 11.1 4.2 8.3 10-.9 1.7-1.6 3.3-1.6 3.6 0 .3 3 .2 6.8 0 5.5-.4 8.4-1.4 16.2-5.4l9.5-4.9v-10c0-11-.1-11.2-6.5-9.3zM366.6 368.6l-4.8 1.5.4 6.9c.4 8 2.1 10.5 7.7 11.5 2.6.4 5.3 0 9-1.4 6.4-2.6 7.3-2.6 10.2-.2 1.8 1.5 2.4 2.9 2.4 6.7l.1 4.8 5.7 1.3c17 3.8 50.8 17 59.7 23.3 1.4.9 4.8 2.9 7.5 4.3 2.8 1.4 6 3.6 7.3 5 2 2.1 8.6 5.5 23.5 12.2 4.5 2 14.6 5.5 15.9 5.5.5 0 .7-7.5.6-16.8l-.3-16.7-6-3.2c-9.1-4.8-10.4-5.3-13.2-5.3-1.5 0-7.7-2.5-13.8-5.5-6.2-3-11.8-5.5-12.5-5.5-.7 0-2.9-.9-4.9-2-5.5-2.9-15.2-6.7-19.2-7.4-2-.3-8.5-2.5-14.5-4.7-40.6-15.1-50.8-17.5-60.8-14.3zM211 375.8v6.9l13.2.6c7.3.3 13.3.5 13.4.4.1-.1-.9-3-2.3-6.4-2.9-6.9-1.2-6.2-18-7.9l-6.3-.6v7z"/><path d="M267 387.4c-2.4 1.4-2.4 1.4 2.3 2.1 7.6 1.2 19.5-.1 17.6-1.9-.2-.2-4.2-.6-8.9-1-6.4-.5-9.1-.3-11 .8zM129.2 413.5c-2.9.8-6.5 2.1-8 2.9-1.5.8-4.6 1.7-6.7 2.1-2.2.3-6.7 1.9-10 3.5s-9.4 4.5-13.5 6.5-9.7 4.9-12.5 6.5c-7.2 4.3-20.1 8.3-25.9 8.1-6.3-.2-16.4-3.3-24.1-7.4-5.3-2.9-6.3-4-9-9.5s-3.6-6.5-8.2-8.7c-2.9-1.4-6.6-2.8-8.3-3.1l-3-.7V429l5.4 5.2c2.9 2.9 6.6 6 8.2 6.8 1.6.7 5.2 3.1 8.1 5.2 7.6 5.5 23.3 9 40.5 9 11.7 0 13.2-.3 18-2.7 2.9-1.4 8-4.8 11.3-7.6 8.4-7 14.2-9.5 28-12 15.3-2.9 17.2-2.8 27.5.3 6.4 1.9 9.6 3.5 13 6.5 2.5 2.2 5.9 4.7 7.5 5.6 3.3 1.7 10 7.7 13.1 11.8 1.1 1.4 3.7 3.2 5.9 3.9 9.4 3 18.6 9.7 24.9 18.1 3.8 5.1 6.7 6.2 16.6 6.5 3 .1 12 1.3 20 2.7 19.4 3.4 24.4 3.4 35-.2 4.7-1.6 9.6-3.2 11-3.5 1.4-.3 5.2-2.8 8.5-5.5 6.3-5.3 17.4-13.1 18.6-13.1.4 0 3-1.6 5.9-3.5 5.3-3.5 9.3-4.9 23-7.9 9.1-1.9 17.2-1.1 24.6 2.7 2.7 1.3 8.3 3.2 12.4 4.1 4.1 1 8.6 2.2 10 2.8 1.4.5 5 1.7 8 2.5s6.6 2.5 8 3.8c2.6 2.5 6.8 4.2 19 7.9 4.1 1.3 8.8 2.8 10.3 3.5 1.6.6 4 1.1 5.4 1.1 1.3 0 3.6.9 5 2s3.7 2 5 2c1.3 0 4.2.9 6.4 2.1 2.2 1.1 6.9 2.9 10.3 4 3.5 1 6.9 2.6 7.6 3.4.7.8 2 1.5 2.9 1.5.9.1 4.1.9 7.1 2l5.5 1.9 3.3-3.2c3.4-3.2 8.4-12 9.5-16.8.6-2.5.4-2.7-5.5-4.4-3.4-.9-7.9-2.8-10-4.2-4-2.7-15.2-7.6-27.8-12.1-4.1-1.5-8.1-3.1-8.7-3.5-.7-.4-3.6-1.6-6.5-2.6-11.6-4-23.3-9.3-28.3-12.6-5.8-3.9-17.1-9.2-26.5-12.6-8.7-3-10.4-3.3-19.5-3.1-5.5.1-16.1 1.1-23.5 2.2-7.4 1.1-14.9 2-16.7 2-1.7 0-4.7.9-6.7 2-1.9 1.2-5.6 2.5-8.3 3-4.7.8-19.9 5.4-27.8 8.4-2.2.8-5.3 1.5-7 1.6-1.6 0-4.1.9-5.5 2-1.4 1.1-3.2 2-4.1 2-.9 0-3.1 1.3-4.8 2.9-1.7 1.6-5.4 3.7-8.1 4.6-2.7.9-6.5 2.9-8.6 4.6-2 1.6-4.5 2.9-5.4 2.9-3.3 0-10-4.6-17.8-12.2-6-5.7-10.1-8.7-17.3-12.3-5.2-2.5-10.5-5.7-11.9-7-3.5-3.2-18.7-10.7-23.5-11.6-10.2-1.8-16.8-3.3-26.7-6-13.8-3.8-18.1-4.2-24.6-2.4z"/><path d="M132.8 432.1c-.9.5-6.5 1.6-12.4 2.5-13.5 2-18.9 4.3-27.7 11.6-3.8 3.1-9.3 6.9-12.3 8.3-5.1 2.4-5.9 2.5-19.6 2.1-19-.5-33-3.5-38.6-8-1.5-1.2-4.9-3.5-7.7-5.1-2.7-1.6-7.1-4.9-9.7-7.3L0 431.7v19l9.8 6.3c5.3 3.5 11.5 7.7 13.7 9.5 2.2 1.8 5.1 3.6 6.5 4 1.4.4 5 2.6 8.2 4.8 5.2 3.6 6.4 4 15.5 5 15.2 1.7 19 1.5 26.8-1.7 7.9-3.2 14-6.5 17-9.3 8.7-8.2 29.1-17.6 33.4-15.4 1.1.6 5.2 2.3 9.3 3.7 7.1 2.6 25.7 11.8 30.8 15.3 1.4 1 5.6 3.4 9.4 5.5 3.8 2 8.5 5 10.5 6.6 12.4 10.1 20.8 16.3 23.7 17.5 1.9.8 5.5 2.8 8.1 4.6 5.9 4.1 12 4.7 48 4.8 22.3.1 26.9-.2 30.5-1.6 5.6-2.2 15.1-9 20.8-14.8 4-4.1 14-11.4 19.5-14.3 1.1-.5 4.7-1.5 8-2.2 7.3-1.4 19.1.4 32.9 5 4.9 1.7 9.3 3 9.9 3 .8 0 19.1 8.6 30.6 14.3 2.4 1.2 6.5 4.1 9.1 6.4l4.8 4.3h17.9c20.6 0 27.3-1 35.7-5.2 6.6-3.3 6.4-3.9-1.9-5.8-2.6-.6-6-1.9-7.4-2.9-1.4-1-5.7-2.8-9.6-4.1-3.8-1.2-8.4-3.1-10.1-4.1-1.7-1.1-4.2-1.9-5.5-1.9-1.3 0-3.3-.7-4.3-1.5-1.1-.8-3.4-1.5-5-1.5-1.7 0-3.9-.7-4.9-1.5-1.1-.7-3.8-1.7-6-2-2.3-.4-6.8-1.8-9.9-3.1-3.2-1.3-6.5-2.4-7.4-2.4-.9 0-3.2-1.3-5-3-3.3-2.9-9.1-4.9-28.4-10.1-4.7-1.3-9.7-3.1-11.3-4.2-4-2.7-15.5-4.1-22.5-2.7-10.1 2-18.8 4.9-22.7 7.6-2.1 1.4-4.9 3-6.3 3.5-3.1 1.2-10.6 6.3-15.9 10.8-7.8 6.7-10.1 8.1-15 9-2.6.6-7 2-9.8 3.2-4.5 2-5.9 2.1-17.5 1.5-6.9-.3-16.8-1.5-22-2.6-5.2-1.1-12.9-2.2-17-2.3-8.6-.2-12-1.8-15.2-7.2-2.8-4.9-13.7-13.1-21.6-16.3-4.9-2-8-4.1-11.5-7.8-2.6-2.9-6.7-6.5-9-8-2.3-1.6-6.5-4.8-9.4-7-3.3-2.8-6.6-4.4-9.4-4.9-2.4-.4-6.6-1.5-9.4-2.5-3.3-1.1-5.7-1.5-6.7-.9z"/><path d="M0 461.2c0 9.4-1 7.9 12.5 19.5 3.9 3.3 8.5 7.4 10.4 9.2 8.4 7.9 19.9 17.9 22.8 19.9 2.8 2 4.4 2.2 16.2 2.2 10.5 0 13.7-.3 15.9-1.7 1.5-.9 4.3-2.6 6.2-3.8 1.9-1.1 7.3-4.6 12-7.7 12-7.9 28.3-15.8 33.8-16.5 3.4-.4 6.4.1 10.7 1.7 3.3 1.2 11.7 4.1 18.7 6.6 6.9 2.4 16.2 6.2 20.5 8.5 4.3 2.3 10.2 5.5 13.1 7 2.9 1.5 6.2 3.5 7.4 4.4 1.7 1.1 5.1 1.5 14.7 1.5h12.4l-2.6-2c-1.3-1.1-5.6-3.6-9.3-5.6-3.8-2-10-6.1-13.9-9.2-3.8-3.1-8.9-7.1-11.2-8.9-2.4-1.9-8-5.4-12.5-7.9-4.6-2.5-10.5-5.8-13.3-7.4-7.4-4.3-16.2-8.6-23.5-11.3-3.6-1.4-7.9-3-9.5-3.7-5.9-2.4-16.9 2.4-32.9 14.3-4.2 3.2-10.9 6.9-16.6 9.2-9.1 3.6-9.7 3.7-17.5 3.1-21.8-1.9-21.6-1.8-27.7-6.4-3.1-2.3-6.3-4.2-7.1-4.2-.8 0-2.5-.8-3.8-1.9-3.4-2.6-17.7-12.3-22.1-15L0 452.8v8.4zM0 472.3c0 .2.5 3 1.1 6.2 3.6 19.6 21 33.5 41.8 33.5h3.6l-2.7-1.8c-1.5-1-8.9-7.4-16.5-14.4C12.7 482.6 0 471.6 0 472.3zM346.5 481.4c-5.4 1.3-18.1 9.4-23 14.6-3.7 4-12.6 10.8-18 13.7l-4 2.2 20.1.1h20l5.9-3.5c3.2-2 6.8-3.8 7.9-4.1 1.2-.2 8.4 1.2 16.1 3.3l14 3.7 24.5.3 24.5.3-4-3.5c-2.2-1.9-8.3-5.5-13.5-8-5.2-2.5-12.4-6.1-16-8-3.6-1.8-10-4.2-14.2-5.4-4.2-1.1-8.7-2.5-10-3.2-2.3-1.3-18.1-3.9-22.8-3.8-1.4 0-4.7.6-7.5 1.3z"/><path d="M126 484.7c-9.1 3.3-25.9 12.7-43 24.3l-4.5 3h27.9c26.1 0 28.1-.1 31.1-2 1.8-1.1 5.1-2.7 7.4-3.5 3.6-1.2 4.8-1.3 8.4-.1 15.1 5 18.3 5.6 32.2 5.6 12.1 0 13.6-.2 12.5-1.5-.7-.8-1.7-1.5-2.3-1.5-.5 0-6.2-2.9-12.6-6.4-6.4-3.5-15.9-7.8-21.1-9.5-5.2-1.7-13.2-4.4-17.8-6.1-7.7-2.8-14.5-3.6-18.2-2.3zM349.5 509l-5 3h18.4c10.1 0 18.2-.2 18-.4-.8-.7-21.7-5.6-24-5.6-1.3 0-4.6 1.4-7.4 3z"/><path d="M143.3 508.3c-1.8.7-3.8 1.8-4.5 2.4-1 1 1.6 1.3 12.8 1.3l13.9-.1-6.9-2.4c-7.6-2.7-10.5-2.9-15.3-1.2z"/></svg>